<?xml version="1.0" encoding="UTF-8"?>
<!DOCTYPE svg PUBLIC "-//W3C//DTD SVG 1.1//EN" "http://www.w3.org/Graphics/SVG/1.1/DTD/svg11.dtd">
<!-- Creator: CorelDRAW X8 -->
<svg xmlns="http://www.w3.org/2000/svg" xml:space="preserve" width="210mm" height="297mm" version="1.1" style="shape-rendering:geometricPrecision; text-rendering:geometricPrecision; image-rendering:optimizeQuality; fill-rule:evenodd; clip-rule:evenodd"
viewBox="0 0 21000 29700"
 xmlns:xlink="http://www.w3.org/1999/xlink">
 <defs>
  <style type="text/css">
   <![CDATA[
    .str0 {stroke:#303030;stroke-width:200}
    .fil1 {fill:#303030}
    .fil0 {fill:#8BC34A}
   ]]>
  </style>
 </defs>
 <g id="Camada_x0020_1">
  <metadata id="CorelCorpID_0Corel-Layer"/>
  <circle class="fil0 str0" cx="10361" cy="13935" r="9000"/>
  <path class="fil1" d="M10778 19517l0 -5582c0,-149 79,-287 208,-361 129,-75 288,-75 417,0 129,74 209,212 209,361l0 2335c0,345 279,625 625,625 345,0 625,-280 625,-625l0 -4670c0,-224 -119,-430 -313,-542 -193,-111 -432,-111 -625,0 -193,112 -312,318 -312,542 0,529 -334,1002 -834,1178l0 -3773c-1,-14 -1,-27 0,-41 7,-67 45,-128 106,-161 72,-41 161,-35 227,15l1833 1386c64,48 148,56 219,20 71,-35 115,-107 115,-186l0 -1145c0,-65 -30,-127 -82,-166l-2632 -1989c-129,-72 -286,-70 -414,5 -127,75 -205,211 -205,359l0 5676c-500,-176 -834,-649 -834,-1178 0,-224 -119,-430 -312,-542 -194,-111 -432,-111 -626,0 -193,112 -312,318 -312,542l0 4670c0,345 280,625 625,625 345,0 625,-280 625,-625l0 -2335c0,-149 80,-287 208,-361 129,-75 288,-75 417,0 129,74 209,212 209,361l0 4138c-654,-377 -1479,-268 -2013,265 -533,534 -642,1359 -265,2012 378,654 1147,972 1876,777 728,-195 1235,-856 1235,-1610z"/>
  <path class="fil1" d="M7027 15102l0 -2335c0,-149 -79,-286 -208,-361 -129,-74 -288,-74 -417,0 -129,75 -208,212 -208,361l0 2335c0,230 187,417 417,417 230,0 416,-187 416,-417z"/>
  <path class="fil1" d="M5360 13935c0,-231 -186,-417 -416,-417 -230,0 -417,186 -417,417 0,230 187,416 417,416 230,0 416,-186 416,-416z"/>
  <path class="fil1" d="M13695 12767l0 2335c0,230 187,417 417,417 230,0 417,-187 417,-417l0 -2335c0,-149 -80,-286 -209,-361 -129,-74 -287,-74 -416,0 -129,75 -209,212 -209,361z"/>
  <path class="fil1" d="M15779 13518c-230,0 -417,186 -417,417 0,230 187,416 417,416 230,0 417,-186 417,-416 0,-231 -187,-417 -417,-417z"/>
 </g>
</svg>
