<?xml version="1.0" encoding="UTF-8"?>
<!DOCTYPE svg PUBLIC "-//W3C//DTD SVG 1.1//EN" "http://www.w3.org/Graphics/SVG/1.1/DTD/svg11.dtd">
<!-- Creator: CorelDRAW X8 -->
<svg xmlns="http://www.w3.org/2000/svg" xml:space="preserve" width="210mm" height="297mm" version="1.1" style="shape-rendering:geometricPrecision; text-rendering:geometricPrecision; image-rendering:optimizeQuality; fill-rule:evenodd; clip-rule:evenodd"
viewBox="0 0 21000 29700"
 xmlns:xlink="http://www.w3.org/1999/xlink">
 <defs>
  <style type="text/css">
   <![CDATA[
    .str0 {stroke:#1E88E5;stroke-width:200}
    .fil0 {fill:#1E88E5}
    .fil1 {fill:white}
   ]]>
  </style>
 </defs>
 <g id="Camada_x0020_1">
  <metadata id="CorelCorpID_0Corel-Layer"/>
  <circle class="fil0 str0" cx="10648" cy="14641" r="9000"/>
  <path class="fil1" d="M11064 20223l0 -5582c0,-149 80,-287 209,-361 129,-75 288,-75 416,0 129,74 209,212 209,361l0 2335c0,345 280,625 625,625 345,0 625,-280 625,-625l0 -4670c0,-224 -119,-430 -312,-542 -194,-112 -432,-112 -626,0 -193,112 -312,318 -312,542 0,529 -334,1002 -834,1178l0 -3773c-1,-14 -1,-27 0,-41 7,-67 46,-128 106,-161 72,-41 161,-35 227,15l1834 1386c63,48 147,56 218,20 71,-35 116,-107 116,-186l0 -1145c0,-65 -31,-127 -83,-166l-2631 -1989c-129,-72 -287,-70 -414,5 -128,75 -206,211 -206,359l0 5676c-500,-176 -834,-649 -834,-1178 0,-224 -119,-430 -312,-542 -194,-112 -432,-112 -625,0 -194,112 -313,318 -313,542l0 4670c0,345 280,625 625,625 346,0 625,-280 625,-625l0 -2335c0,-149 80,-287 209,-361 129,-75 288,-75 417,0 128,74 208,212 208,361l0 4138c-653,-377 -1479,-268 -2012,265 -534,534 -642,1359 -265,2012 377,654 1146,972 1875,777 729,-195 1235,-856 1235,-1610z"/>
  <path class="fil1" d="M7314 15808l0 -2335c0,-149 -80,-286 -209,-361 -129,-74 -287,-74 -416,0 -129,75 -209,212 -209,361l0 2335c0,230 187,417 417,417 230,0 417,-187 417,-417z"/>
  <path class="fil1" d="M5647 14641c0,-231 -187,-417 -417,-417 -230,0 -417,186 -417,417 0,230 187,416 417,416 230,0 417,-186 417,-416z"/>
  <path class="fil1" d="M13982 13473l0 2335c0,230 186,417 416,417 230,0 417,-187 417,-417l0 -2335c0,-149 -79,-286 -208,-361 -129,-74 -288,-74 -417,0 -129,75 -208,212 -208,361z"/>
  <path class="fil1" d="M16065 14224c-230,0 -417,186 -417,417 0,230 187,416 417,416 230,0 417,-186 417,-416 0,-231 -187,-417 -417,-417z"/>
 </g>
</svg>
