<?xml version="1.0" encoding="UTF-8"?>
<!DOCTYPE svg PUBLIC "-//W3C//DTD SVG 1.1//EN" "http://www.w3.org/Graphics/SVG/1.1/DTD/svg11.dtd">
<!-- Creator: CorelDRAW X8 -->
<svg xmlns="http://www.w3.org/2000/svg" xml:space="preserve" width="210mm" height="297mm" version="1.1" style="shape-rendering:geometricPrecision; text-rendering:geometricPrecision; image-rendering:optimizeQuality; fill-rule:evenodd; clip-rule:evenodd"
viewBox="0 0 21000 29700"
 xmlns:xlink="http://www.w3.org/1999/xlink">
 <defs>
  <style type="text/css">
   <![CDATA[
    .str0 {stroke:#8BC34A;stroke-width:600}
    .fil0 {fill:#303030}
    .fil1 {fill:#8BC34A}
   ]]>
  </style>
 </defs>
 <g id="Camada_x0020_1">
  <metadata id="CorelCorpID_0Corel-Layer"/>
  <circle class="fil0 str0" cx="10502" cy="14217" r="9000"/>
  <path class="fil1" d="M10919 19799l0 -5582c0,-149 80,-287 209,-361 128,-75 287,-75 416,0 129,74 209,212 209,361l0 2335c0,345 280,625 625,625 345,0 625,-280 625,-625l0 -4670c0,-224 -119,-430 -313,-542 -193,-111 -431,-111 -625,0 -193,112 -312,318 -312,542 0,530 -334,1002 -834,1178l0 -3773c-1,-14 -1,-27 0,-40 7,-68 46,-128 106,-162 72,-40 161,-34 227,16l1834 1385c63,48 147,56 218,21 71,-36 116,-108 116,-187l0 -1145c0,-65 -31,-126 -83,-166l-2631 -1989c-130,-72 -287,-70 -415,5 -127,75 -205,212 -205,359l0 5676c-500,-176 -834,-648 -834,-1178 0,-224 -119,-430 -312,-542 -194,-111 -432,-111 -625,0 -194,112 -313,318 -313,542l0 4670c0,345 280,625 625,625 345,0 625,-280 625,-625l0 -2335c0,-149 80,-287 209,-361 129,-75 287,-75 416,0 129,74 209,212 209,361l0 4139c-654,-378 -1479,-269 -2013,264 -533,534 -642,1359 -264,2013 377,653 1146,972 1875,776 728,-195 1235,-855 1235,-1610z"/>
  <path class="fil1" d="M7169 15384l0 -2335c0,-149 -80,-286 -209,-361 -129,-74 -288,-74 -417,0 -129,75 -208,212 -208,361l0 2335c0,231 187,417 417,417 230,0 417,-186 417,-417z"/>
  <path class="fil1" d="M5502 14217c0,-230 -187,-417 -417,-417 -230,0 -417,187 -417,417 0,230 187,417 417,417 230,0 417,-187 417,-417z"/>
  <path class="fil1" d="M13836 13049l0 2335c0,231 187,417 417,417 230,0 417,-186 417,-417l0 -2335c0,-149 -80,-286 -209,-361 -129,-74 -287,-74 -416,0 -129,75 -209,212 -209,361z"/>
  <path class="fil1" d="M15920 13800c-230,0 -417,187 -417,417 0,230 187,417 417,417 230,0 417,-187 417,-417 0,-230 -187,-417 -417,-417z"/>
 </g>
</svg>
