<?xml version="1.0" encoding="iso-8859-1"?>
<!-- Generator: Adobe Illustrator 19.1.0, SVG Export Plug-In . SVG Version: 6.00 Build 0)  -->
<svg version="1.1" id="Capa_1" xmlns="http://www.w3.org/2000/svg" xmlns:xlink="http://www.w3.org/1999/xlink" x="0px" y="0px"
	 viewBox="0 0 487 487" style="enable-background:new 0 0 487 487;" xml:space="preserve">
<g>
	<path fill="#303030" d="M397.7,24.6C356.3,8.7,301.5,0,243.5,0S130.7,8.7,89.3,24.6C43.8,42.1,18.8,66.9,18.8,94.5v298c0,27.6,25,52.4,70.5,69.9
		c41.4,15.9,96.2,24.6,154.2,24.6s112.8-8.7,154.2-24.6c45.5-17.4,70.5-42.3,70.5-69.9v-298C468.2,66.9,443.2,42.1,397.7,24.6z
		 M441.2,392.5c0,15.2-19.9,31.9-53.2,44.7c-38.4,14.7-89.7,22.8-144.5,22.8S137.4,451.9,99,437.2c-33.3-12.8-53.2-29.5-53.2-44.7
		v-51.4c11.2,8.8,25.8,16.7,43.5,23.4c41.4,15.9,96.2,24.6,154.2,24.6s112.8-8.7,154.2-24.6c17.7-6.8,32.3-14.7,43.5-23.4V392.5z
		 M441.2,294.7c0,15.2-19.9,31.9-53.2,44.7c-38.4,14.7-89.7,22.8-144.5,22.8S137.4,354.1,99,339.4c-33.3-12.8-53.2-29.5-53.2-44.7
		v-52.9c11.2,8.8,25.8,16.7,43.5,23.4c41.4,15.9,96.2,24.6,154.2,24.6s112.8-8.7,154.2-24.6c17.7-6.8,32.3-14.7,43.5-23.4V294.7z
		 M441.2,195.3c0,15.2-19.9,31.9-53.2,44.7c-38.4,14.7-89.7,22.8-144.5,22.8S137.4,254.7,99,240c-33.3-12.8-53.2-29.5-53.2-44.7
		v-1.5v-52.9c11.2,8.8,25.8,16.7,43.5,23.4c41.4,15.9,96.2,24.6,154.2,24.6s112.8-8.7,154.2-24.6c17.7-6.8,32.3-14.7,43.5-23.4
		V195.3z M388,139.1c-38.4,14.7-89.7,22.8-144.5,22.8S137.4,153.8,99,139.1c-33.3-12.8-53.2-29.5-53.2-44.7S65.7,62.5,99,49.7
		c38.4-14.7,89.7-22.8,144.5-22.8S349.6,35,388,49.7c33.3,12.8,53.2,29.5,53.2,44.7S421.3,126.4,388,139.1z"/>
</g>
</svg>
