<?xml version="1.0" encoding="UTF-8" standalone="no"?>
<!-- Created with Inkscape (http://www.inkscape.org/) -->

<svg
   xmlns:dc="http://purl.org/dc/elements/1.1/"
   xmlns:cc="http://creativecommons.org/ns#"
   xmlns:rdf="http://www.w3.org/1999/02/22-rdf-syntax-ns#"
   xmlns:svg="http://www.w3.org/2000/svg"
   xmlns="http://www.w3.org/2000/svg"
   xmlns:sodipodi="http://sodipodi.sourceforge.net/DTD/sodipodi-0.dtd"
   xmlns:inkscape="http://www.inkscape.org/namespaces/inkscape"
   width="512"
   height="512"
   viewBox="0 0 135.46666 135.46666"
   version="1.1"
   id="svg8"
   inkscape:version="0.92.3 (2405546, 2018-03-11)"
   sodipodi:docname="M-inkscape.svg"
   inkscape:export-filename="C:\Users\Thomas\Workspace\musicalypse-pages\img\M.PNG"
   inkscape:export-xdpi="96"
   inkscape:export-ydpi="96">
  <defs
     id="defs2">
    <marker
       inkscape:stockid="Arrow1Lstart"
       orient="auto"
       refY="0.0"
       refX="0.0"
       id="Arrow1Lstart"
       style="overflow:visible"
       inkscape:isstock="true">
      <path
         id="path5163"
         d="M 0.0,0.0 L 5.0,-5.0 L -12.5,0.0 L 5.0,5.0 L 0.0,0.0 z "
         style="fill-rule:evenodd;stroke:#050505;stroke-width:1pt;stroke-opacity:1;fill:#303030;fill-opacity:1"
         transform="scale(0.8) translate(12.5,0)" />
    </marker>
  </defs>
  <sodipodi:namedview
     id="base"
     pagecolor="#ffffff"
     bordercolor="#666666"
     borderopacity="1.0"
     inkscape:pageopacity="0.0"
     inkscape:pageshadow="2"
     inkscape:zoom="1.4"
     inkscape:cx="224.6408"
     inkscape:cy="249.94912"
     inkscape:document-units="px"
     inkscape:current-layer="svg8"
     showgrid="false"
     units="px"
     inkscape:pagecheckerboard="true"
     inkscape:showpageshadow="false"
     borderlayer="false"
     showborder="true"
     inkscape:window-width="1920"
     inkscape:window-height="1017"
     inkscape:window-x="-8"
     inkscape:window-y="-8"
     inkscape:window-maximized="1" />
  <metadata
     id="metadata5">
    <rdf:RDF>
      <cc:Work
         rdf:about="">
        <dc:format>image/svg+xml</dc:format>
        <dc:type
           rdf:resource="http://purl.org/dc/dcmitype/StillImage" />
        <dc:title></dc:title>
      </cc:Work>
    </rdf:RDF>
  </metadata>
  <path
     d="M 132.26371,48.789563 A 67.253525,67.253517 0 0 1 86.677466,132.2636 67.253525,67.253517 0 0 1 3.203161,86.677831 67.253525,67.253517 0 0 1 48.788474,3.2032816 67.253525,67.253517 0 0 1 132.26329,48.788124"
     sodipodi:open="true"
     sodipodi:end="5.9976215"
     sodipodi:start="5.9976438"
     sodipodi:ry="67.253517"
     sodipodi:rx="67.253525"
     sodipodi:cy="67.733337"
     sodipodi:cx="67.73333"
     sodipodi:type="arc"
     id="path5124"
     style="opacity:1;fill:#303030;fill-opacity:1;stroke:#050505;stroke-width:0.39609921;stroke-linecap:butt;stroke-linejoin:miter;stroke-miterlimit:4;stroke-dasharray:none;stroke-opacity:1" />
  <path
     inkscape:connector-curvature="0"
     d="m 63.788139,84.207681 c 0.857852,4.478115 0.940956,7.980672 0.635108,12.290888 -0.151699,2.137866 -1.151107,5.592611 -2.284366,5.696631 -1.381881,0.12683 -1.853544,-4.538521 -1.564103,-7.104872 0.423596,-3.755861 1.180058,-7.134665 3.213361,-10.882647 z m -8.16783,-44.486574 c 3.199179,4.190348 5.929194,9.028346 8.379253,13.829197 1.922055,3.766236 2.89237,6.180337 4.928259,11.688529 3.360935,-5.873849 10.941968,-16.679497 18.385326,-23.84832 0.0554,-2.795499 2.913219,-23.150849 8.734003,-26.645458 3.358034,-2.016051 7.36047,4.042869 7.79148,7.935815 1.025,9.257892 -7.339773,19.943428 -8.498377,21.192903 -1.12772,7.601712 -2.973554,42.918371 -0.357353,55.857649 1.32394,6.548008 9.9145,-2.629709 20.24777,-26.348966 -0.0335,4.592482 -0.0597,4.560679 -0.0887,8.784427 -2.49471,5.471038 -8.77346,24.672827 -19.80172,27.307157 -3.705572,0.88515 -10.761935,-0.65584 -10.979023,-4.2492 C 83.68001,93.949777 84.157585,66.949751 85.780202,52.929488 80.928878,56.967402 73.841484,66.599462 70.49112,71.228734 c 1.041523,5.515417 3.306296,8.869057 3.098856,20.336455 -0.171007,9.453271 -3.286257,17.273831 -10.654707,17.437581 -6.793991,0.151 -6.724669,-7.47092 -6.815916,-12.098921 -0.141677,-7.185778 4.597212,-15.797406 6.314221,-20.511225 -2.974185,-7.441583 -5.3331,-14.002633 -8.262744,-18.681821 -1.68251,10.596615 -7.305703,31.485562 -14.637831,43.766547 -2.492937,4.17556 -5.902702,8.76053 -11.511153,9.29396 -3.584979,0.34098 -7.585304,0.006 -7.730617,-3.21537 -0.17631,-3.90846 2.573194,-5.75413 5.196932,-6.28639 4.642638,-0.94182 6.318433,-1.802292 7.87756,-4.368313 9.053473,-14.900265 14.867082,-37.865848 15.788163,-47.067994 -2.225871,-2.768364 -5.519781,-7.013733 -5.84296,-11.217267 -0.237211,-3.085382 0.640269,-6.766737 2.979736,-8.792261 1.672203,-1.447805 4.272626,-1.940718 6.52464,-1.208587 2.53828,0.825196 2.478637,8.209145 2.80497,11.105979 z"
     style="fill:#8bc34a;fill-opacity:1;fill-rule:evenodd;stroke:#050505;stroke-width:0.396875;stroke-linecap:butt;stroke-linejoin:miter;stroke-miterlimit:4;stroke-dasharray:none;stroke-opacity:1"
     id="path5097" />
</svg>
