<?xml version="1.0" encoding="UTF-8"?>
<svg width="512" height="512" version="1.1" viewBox="0 0 135.47 135.47" xmlns="http://www.w3.org/2000/svg">
 <path d="m132.26 48.79a67.254 67.254 0 0 1-45.586 83.474 67.254 67.254 0 0 1-83.474-45.586 67.254 67.254 0 0 1 45.585-83.475 67.254 67.254 0 0 1 83.475 45.585" fill="#303030" stroke="#050505" stroke-width=".3961"/>
 <path d="m63.788 84.208c0.85785 4.4781 0.94096 7.9807 0.63511 12.291-0.1517 2.1379-1.1511 5.5926-2.2844 5.6966-1.3819 0.12683-1.8535-4.5385-1.5641-7.1049 0.4236-3.7559 1.1801-7.1347 3.2134-10.883zm-8.1678-44.487c3.1992 4.1903 5.9292 9.0283 8.3793 13.829 1.9221 3.7662 2.8924 6.1803 4.9283 11.689 3.3609-5.8738 10.942-16.679 18.385-23.848 0.0554-2.7955 2.9132-23.151 8.734-26.645 3.358-2.0161 7.3605 4.0429 7.7915 7.9358 1.025 9.2579-7.3398 19.943-8.4984 21.193-1.1277 7.6017-2.9736 42.918-0.35735 55.858 1.3239 6.548 9.9145-2.6297 20.248-26.349-0.0335 4.5925-0.0597 4.5607-0.0887 8.7844-2.4947 5.471-8.7735 24.673-19.802 27.307-3.7056 0.88515-10.762-0.65584-10.979-4.2492-0.68122-11.275-0.20364-38.275 1.419-52.295-4.8513 4.0379-11.939 13.67-15.289 18.299 1.0415 5.5154 3.3063 8.8691 3.0989 20.336-0.17101 9.4533-3.2863 17.274-10.655 17.438-6.794 0.151-6.7247-7.4709-6.8159-12.099-0.14168-7.1858 4.5972-15.797 6.3142-20.511-2.9742-7.4416-5.3331-14.003-8.2627-18.682-1.6825 10.597-7.3057 31.486-14.638 43.767-2.4929 4.1756-5.9027 8.7605-11.511 9.294-3.585 0.34098-7.5853 6e-3 -7.7306-3.2154-0.17631-3.9085 2.5732-5.7541 5.1969-6.2864 4.6426-0.94182 6.3184-1.8023 7.8776-4.3683 9.0535-14.9 14.867-37.866 15.788-47.068-2.2259-2.7684-5.5198-7.0137-5.843-11.217-0.23721-3.0854 0.64027-6.7667 2.9797-8.7923 1.6722-1.4478 4.2726-1.9407 6.5246-1.2086 2.5383 0.8252 2.4786 8.2091 2.805 11.106z" fill="#8bc34a" fill-rule="evenodd" stroke="#050505" stroke-width=".39688"/>
</svg>
